STARTFONT 2.1
COMMENT Created by fdbbdf
FONT helvetica14
SIZE 14 78 78
FONTBOUNDINGBOX 15 17 0 -5
STARTPROPERTIES 4
Ownership "  Copyright (c) 1984 Adobe Systems, Inc.  allchars 75orig/HM16.bits  WIDTHERR -189 -137  GUIDELINES -4 0 9 12 DONE  TOTAL BITMAP BYTES 2823  "
FONT_ASCENT 12
FONT_DESCENT 5
DEFAULT_CHAR 32
ENDPROPERTIES
CHARS 95
STARTCHAR sp
ENCODING -1 32
SWIDTH 0 0
DWIDTH 5 0
BBX 1 1 0 -1
BITMAP
0000
ENDCHAR
STARTCHAR !
ENCODING -1 33
SWIDTH 0 0
DWIDTH 4 0
BBX 2 12 1 -1
BITMAP
c000
c000
c000
c000
c000
c000
c000
c000
c000
0000
c000
c000
ENDCHAR
STARTCHAR "
ENCODING -1 34
SWIDTH 0 0
DWIDTH 5 0
BBX 3 4 1 7
BITMAP
a000
a000
a000
a000
ENDCHAR
STARTCHAR #
ENCODING -1 35
SWIDTH 0 0
DWIDTH 10 0
BBX 8 10 1 -1
BITMAP
1200
1200
7f00
7f00
2400
2400
fe00
fe00
4800
4800
ENDCHAR
STARTCHAR $
ENCODING -1 36
SWIDTH 0 0
DWIDTH 9 0
BBX 7 15 1 -3
BITMAP
1000
7c00
d600
d600
d000
7000
3800
1c00
1600
1600
d600
d600
7c00
1000
1000
ENDCHAR
STARTCHAR %
ENCODING -1 37
SWIDTH 0 0
DWIDTH 15 0
BBX 13 12 1 -1
BITMAP
0040
70c0
d880
8980
d900
7300
0200
0670
04d8
0c88
08d8
1870
ENDCHAR
STARTCHAR &
ENCODING -1 38
SWIDTH 0 0
DWIDTH 11 0
BBX 9 12 1 -1
BITMAP
3c00
6600
6600
6600
3c00
3800
6d80
c780
c300
c300
e780
7d80
ENDCHAR
STARTCHAR '
ENCODING -1 39
SWIDTH 0 0
DWIDTH 4 0
BBX 2 4 1 7
BITMAP
c000
c000
4000
8000
ENDCHAR
STARTCHAR (
ENCODING -1 40
SWIDTH 0 0
DWIDTH 5 0
BBX 3 15 1 -4
BITMAP
2000
6000
4000
c000
c000
8000
8000
8000
8000
8000
c000
c000
4000
6000
2000
ENDCHAR
STARTCHAR )
ENCODING -1 41
SWIDTH 0 0
DWIDTH 5 0
BBX 3 15 1 -4
BITMAP
8000
c000
4000
6000
6000
6000
2000
2000
2000
6000
6000
6000
4000
c000
8000
ENDCHAR
STARTCHAR *
ENCODING -1 42
SWIDTH 0 0
DWIDTH 7 0
BBX 5 4 1 7
BITMAP
a800
7000
7000
a800
ENDCHAR
STARTCHAR +
ENCODING -1 43
SWIDTH 0 0
DWIDTH 10 0
BBX 8 7 1 1
BITMAP
1800
1800
1800
ff00
1800
1800
1800
ENDCHAR
STARTCHAR ,
ENCODING -1 44
SWIDTH 0 0
DWIDTH 4 0
BBX 2 4 1 -3
BITMAP
c000
c000
4000
8000
ENDCHAR
STARTCHAR -
ENCODING -1 45
SWIDTH 0 0
DWIDTH 8 0
BBX 6 1 1 4
BITMAP
fc00
ENDCHAR
STARTCHAR .
ENCODING -1 46
SWIDTH 0 0
DWIDTH 4 0
BBX 2 2 1 -1
BITMAP
c000
c000
ENDCHAR
STARTCHAR /
ENCODING -1 47
SWIDTH 0 0
DWIDTH 7 0
BBX 5 12 1 -1
BITMAP
1800
1800
1000
3000
3000
3000
6000
6000
6000
4000
c000
c000
ENDCHAR
STARTCHAR 0
ENCODING -1 48
SWIDTH 0 0
DWIDTH 9 0
BBX 7 12 1 -1
BITMAP
3800
6c00
c600
c600
c600
c600
c600
c600
c600
c600
6c00
3800
ENDCHAR
STARTCHAR 1
ENCODING -1 49
SWIDTH 0 0
DWIDTH 6 0
BBX 4 12 1 -1
BITMAP
1000
3000
f000
3000
3000
3000
3000
3000
3000
3000
3000
3000
ENDCHAR
STARTCHAR 2
ENCODING -1 50
SWIDTH 0 0
DWIDTH 9 0
BBX 7 12 1 -1
BITMAP
7c00
ee00
c600
c600
0c00
0c00
1800
3000
6000
6000
c000
fe00
ENDCHAR
STARTCHAR 3
ENCODING -1 51
SWIDTH 0 0
DWIDTH 9 0
BBX 7 12 1 -1
BITMAP
3800
6c00
c600
c600
0600
1c00
0c00
0600
c600
c600
6c00
3800
ENDCHAR
STARTCHAR 4
ENCODING -1 52
SWIDTH 0 0
DWIDTH 10 0
BBX 8 12 1 -1
BITMAP
0e00
1e00
1e00
3600
3600
6600
6600
c600
ff00
0600
0600
0600
ENDCHAR
STARTCHAR 5
ENCODING -1 53
SWIDTH 0 0
DWIDTH 9 0
BBX 7 12 1 -1
BITMAP
7e00
6000
c000
c000
f800
1c00
0e00
0600
0600
c600
cc00
7800
ENDCHAR
STARTCHAR 6
ENCODING -1 54
SWIDTH 0 0
DWIDTH 9 0
BBX 7 12 1 -1
BITMAP
3c00
6600
c600
c000
f800
ec00
c600
c600
c600
c600
6c00
3800
ENDCHAR
STARTCHAR 7
ENCODING -1 55
SWIDTH 0 0
DWIDTH 10 0
BBX 8 12 1 -1
BITMAP
ff00
0700
0600
0600
0c00
0c00
1800
1800
3000
3000
3000
3000
ENDCHAR
STARTCHAR 8
ENCODING -1 56
SWIDTH 0 0
DWIDTH 9 0
BBX 7 12 1 -1
BITMAP
3800
6c00
c600
c600
c600
7c00
6c00
c600
c600
c600
6c00
3800
ENDCHAR
STARTCHAR 9
ENCODING -1 57
SWIDTH 0 0
DWIDTH 9 0
BBX 7 12 1 -1
BITMAP
3800
6c00
c600
c600
c600
c600
6e00
3e00
0600
c400
cc00
7800
ENDCHAR
STARTCHAR :
ENCODING -1 58
SWIDTH 0 0
DWIDTH 4 0
BBX 2 9 1 -1
BITMAP
c000
c000
0000
0000
0000
0000
0000
c000
c000
ENDCHAR
STARTCHAR ;
ENCODING -1 59
SWIDTH 0 0
DWIDTH 4 0
BBX 2 11 1 -3
BITMAP
c000
c000
0000
0000
0000
0000
0000
c000
c000
4000
8000
ENDCHAR
STARTCHAR <
ENCODING -1 60
SWIDTH 0 0
DWIDTH 10 0
BBX 8 7 1 1
BITMAP
0300
1e00
7000
c000
7000
1e00
0300
ENDCHAR
STARTCHAR =
ENCODING -1 61
SWIDTH 0 0
DWIDTH 9 0
BBX 7 4 1 3
BITMAP
fe00
0000
0000
fe00
ENDCHAR
STARTCHAR >
ENCODING -1 62
SWIDTH 0 0
DWIDTH 10 0
BBX 8 7 1 1
BITMAP
c000
7800
0e00
0300
0e00
7800
c000
ENDCHAR
STARTCHAR ?
ENCODING -1 63
SWIDTH 0 0
DWIDTH 9 0
BBX 7 12 1 -1
BITMAP
3800
7c00
c600
c600
0600
0c00
1800
3000
3000
0000
3000
3000
ENDCHAR
STARTCHAR @
ENCODING -1 64
SWIDTH 0 0
DWIDTH 15 0
BBX 13 14 1 -3
BITMAP
1fe0
3030
6010
4758
cfc8
98c8
98c8
98d8
9998
dfb0
4ee0
6000
3820
0fc0
ENDCHAR
STARTCHAR A
ENCODING -1 65
SWIDTH 0 0
DWIDTH 12 0
BBX 10 12 1 -1
BITMAP
0c00
0c00
1e00
1e00
3300
3300
3300
6180
7f80
6180
c0c0
c0c0
ENDCHAR
STARTCHAR B
ENCODING -1 66
SWIDTH 0 0
DWIDTH 11 0
BBX 9 12 1 -1
BITMAP
ff00
c380
c180
c180
c300
fe00
c300
c180
c180
c180
c380
ff00
ENDCHAR
STARTCHAR C
ENCODING -1 67
SWIDTH 0 0
DWIDTH 12 0
BBX 10 12 1 -1
BITMAP
1f00
3180
60c0
60c0
c000
c000
c000
c000
60c0
60c0
3180
1f00
ENDCHAR
STARTCHAR D
ENCODING -1 68
SWIDTH 0 0
DWIDTH 12 0
BBX 10 12 1 -1
BITMAP
fe00
c300
c180
c180
c0c0
c0c0
c0c0
c0c0
c180
c180
c300
fe00
ENDCHAR
STARTCHAR E
ENCODING -1 69
SWIDTH 0 0
DWIDTH 10 0
BBX 8 12 1 -1
BITMAP
ff00
c000
c000
c000
c000
fe00
c000
c000
c000
c000
c000
ff00
ENDCHAR
STARTCHAR F
ENCODING -1 70
SWIDTH 0 0
DWIDTH 9 0
BBX 7 12 1 -1
BITMAP
fe00
c000
c000
c000
c000
fe00
c000
c000
c000
c000
c000
c000
ENDCHAR
STARTCHAR G
ENCODING -1 71
SWIDTH 0 0
DWIDTH 13 0
BBX 11 12 1 -1
BITMAP
1f80
30c0
6060
6060
c000
c000
c3e0
c060
6060
60e0
31e0
1f60
ENDCHAR
STARTCHAR H
ENCODING -1 72
SWIDTH 0 0
DWIDTH 11 0
BBX 9 12 1 -1
BITMAP
c180
c180
c180
c180
c180
ff80
c180
c180
c180
c180
c180
c180
ENDCHAR
STARTCHAR I
ENCODING -1 73
SWIDTH 0 0
DWIDTH 4 0
BBX 2 12 1 -1
BITMAP
c000
c000
c000
c000
c000
c000
c000
c000
c000
c000
c000
c000
ENDCHAR
STARTCHAR J
ENCODING -1 74
SWIDTH 0 0
DWIDTH 8 0
BBX 6 12 1 -1
BITMAP
0c00
0c00
0c00
0c00
0c00
0c00
0c00
0c00
cc00
cc00
cc00
7800
ENDCHAR
STARTCHAR K
ENCODING -1 75
SWIDTH 0 0
DWIDTH 11 0
BBX 9 12 1 -1
BITMAP
c300
c600
cc00
d800
f000
f000
f800
dc00
ce00
c700
c380
c180
ENDCHAR
STARTCHAR L
ENCODING -1 76
SWIDTH 0 0
DWIDTH 9 0
BBX 7 12 1 -1
BITMAP
c000
c000
c000
c000
c000
c000
c000
c000
c000
c000
c000
fe00
ENDCHAR
STARTCHAR M
ENCODING -1 77
SWIDTH 0 0
DWIDTH 14 0
BBX 12 12 1 -1
BITMAP
c030
c030
e070
e070
f0f0
f0b0
d9b0
d9b0
cf30
cf30
c630
c630
ENDCHAR
STARTCHAR N
ENCODING -1 78
SWIDTH 0 0
DWIDTH 11 0
BBX 9 12 1 -1
BITMAP
c180
e180
e180
f180
d180
d980
cd80
c580
c780
c380
c380
c180
ENDCHAR
STARTCHAR O
ENCODING -1 79
SWIDTH 0 0
DWIDTH 13 0
BBX 11 12 1 -1
BITMAP
1f00
3180
60c0
60c0
c060
c060
c060
c060
60c0
60c0
3180
1f00
ENDCHAR
STARTCHAR P
ENCODING -1 80
SWIDTH 0 0
DWIDTH 10 0
BBX 8 12 1 -1
BITMAP
fc00
c600
c300
c300
c300
c600
fc00
c000
c000
c000
c000
c000
ENDCHAR
STARTCHAR Q
ENCODING -1 81
SWIDTH 0 0
DWIDTH 13 0
BBX 11 12 1 -1
BITMAP
1f00
3180
60c0
60c0
c060
c060
c060
c060
66c0
63c0
31c0
1f60
ENDCHAR
STARTCHAR R
ENCODING -1 82
SWIDTH 0 0
DWIDTH 11 0
BBX 9 12 1 -1
BITMAP
fe00
c300
c180
c180
c180
c300
fe00
c700
c300
c300
c380
c180
ENDCHAR
STARTCHAR S
ENCODING -1 83
SWIDTH 0 0
DWIDTH 10 0
BBX 8 12 1 -1
BITMAP
3c00
6600
c300
c300
e000
7800
1e00
0700
c300
c300
6600
3c00
ENDCHAR
STARTCHAR T
ENCODING -1 84
SWIDTH 0 0
DWIDTH 10 0
BBX 8 12 1 -1
BITMAP
ff00
1800
1800
1800
1800
1800
1800
1800
1800
1800
1800
1800
ENDCHAR
STARTCHAR U
ENCODING -1 85
SWIDTH 0 0
DWIDTH 11 0
BBX 9 12 1 -1
BITMAP
c180
c180
c180
c180
c180
c180
c180
c180
c180
c180
6300
3e00
ENDCHAR
STARTCHAR V
ENCODING -1 86
SWIDTH 0 0
DWIDTH 11 0
BBX 10 12 1 -1
BITMAP
c0c0
c0c0
c0c0
6180
6180
3300
3300
3300
1e00
1e00
0c00
0c00
ENDCHAR
STARTCHAR W
ENCODING -1 87
SWIDTH 0 0
DWIDTH 16 0
BBX 14 12 1 -1
BITMAP
c30c
c30c
c30c
6798
6798
6498
6cd8
2cd0
3cf0
1860
1860
1860
ENDCHAR
STARTCHAR X
ENCODING -1 88
SWIDTH 0 0
DWIDTH 12 0
BBX 10 12 1 -1
BITMAP
e1c0
6180
3300
3300
1e00
0c00
1e00
1e00
3300
3300
6180
e1c0
ENDCHAR
STARTCHAR Y
ENCODING -1 89
SWIDTH 0 0
DWIDTH 12 0
BBX 10 12 1 -1
BITMAP
c0c0
c0c0
6180
6180
3300
3f00
1e00
0c00
0c00
0c00
0c00
0c00
ENDCHAR
STARTCHAR Z
ENCODING -1 90
SWIDTH 0 0
DWIDTH 11 0
BBX 9 12 1 -1
BITMAP
7f80
0180
0300
0700
0e00
0c00
1800
3800
3000
6000
c000
ff80
ENDCHAR
STARTCHAR [
ENCODING -1 91
SWIDTH 0 0
DWIDTH 5 0
BBX 3 15 1 -4
BITMAP
e000
8000
8000
8000
8000
8000
8000
8000
8000
8000
8000
8000
8000
8000
e000
ENDCHAR
STARTCHAR \
ENCODING -1 92
SWIDTH 0 0
DWIDTH 6 0
BBX 4 12 1 -1
BITMAP
8000
8000
c000
4000
4000
6000
2000
2000
2000
3000
1000
1000
ENDCHAR
STARTCHAR ]
ENCODING -1 93
SWIDTH 0 0
DWIDTH 5 0
BBX 3 15 1 -4
BITMAP
e000
2000
2000
2000
2000
2000
2000
2000
2000
2000
2000
2000
2000
2000
e000
ENDCHAR
STARTCHAR ^
ENCODING -1 94
SWIDTH 0 0
DWIDTH 7 0
BBX 5 7 1 4
BITMAP
2000
7000
5000
5000
d800
8800
8800
ENDCHAR
STARTCHAR _
ENCODING -1 95
SWIDTH 0 0
DWIDTH 9 0
BBX 9 1 0 -4
BITMAP
ff80
ENDCHAR
STARTCHAR `
ENCODING -1 96
SWIDTH 0 0
DWIDTH 4 0
BBX 2 4 1 7
BITMAP
4000
8000
c000
c000
ENDCHAR
STARTCHAR a
ENCODING -1 97
SWIDTH 0 0
DWIDTH 9 0
BBX 7 9 1 -1
BITMAP
7c00
c600
c600
0e00
7600
c600
c600
ce00
7600
ENDCHAR
STARTCHAR b
ENCODING -1 98
SWIDTH 0 0
DWIDTH 9 0
BBX 7 12 1 -1
BITMAP
c000
c000
c000
d800
ec00
c600
c600
c600
c600
c600
ec00
d800
ENDCHAR
STARTCHAR c
ENCODING -1 99
SWIDTH 0 0
DWIDTH 9 0
BBX 7 9 1 -1
BITMAP
3c00
6600
c200
c000
c000
c000
c200
6600
3c00
ENDCHAR
STARTCHAR d
ENCODING -1 100
SWIDTH 0 0
DWIDTH 9 0
BBX 7 12 1 -1
BITMAP
0600
0600
0600
3600
6e00
c600
c600
c600
c600
c600
6e00
3600
ENDCHAR
STARTCHAR e
ENCODING -1 101
SWIDTH 0 0
DWIDTH 9 0
BBX 7 9 1 -1
BITMAP
3800
6c00
c600
c600
fe00
c000
c600
6c00
3800
ENDCHAR
STARTCHAR f
ENCODING -1 102
SWIDTH 0 0
DWIDTH 6 0
BBX 5 12 1 -1
BITMAP
3800
6000
6000
f800
6000
6000
6000
6000
6000
6000
6000
6000
ENDCHAR
STARTCHAR g
ENCODING -1 103
SWIDTH 0 0
DWIDTH 9 0
BBX 7 13 1 -5
BITMAP
3a00
6600
c600
c600
c600
c600
c600
6600
3e00
0600
c600
c400
7800
ENDCHAR
STARTCHAR h
ENCODING -1 104
SWIDTH 0 0
DWIDTH 9 0
BBX 7 12 1 -1
BITMAP
c000
c000
c000
dc00
ee00
c600
c600
c600
c600
c600
c600
c600
ENDCHAR
STARTCHAR i
ENCODING -1 105
SWIDTH 0 0
DWIDTH 4 0
BBX 2 12 1 -1
BITMAP
c000
c000
0000
c000
c000
c000
c000
c000
c000
c000
c000
c000
ENDCHAR
STARTCHAR j
ENCODING -1 106
SWIDTH 0 0
DWIDTH 5 0
BBX 3 16 1 -5
BITMAP
6000
6000
0000
6000
6000
6000
6000
6000
6000
6000
6000
6000
6000
6000
e000
c000
ENDCHAR
STARTCHAR k
ENCODING -1 107
SWIDTH 0 0
DWIDTH 9 0
BBX 7 12 1 -1
BITMAP
c000
c000
c000
c600
cc00
d800
f000
f000
f800
dc00
ce00
c600
ENDCHAR
STARTCHAR l
ENCODING -1 108
SWIDTH 0 0
DWIDTH 4 0
BBX 2 12 1 -1
BITMAP
c000
c000
c000
c000
c000
c000
c000
c000
c000
c000
c000
c000
ENDCHAR
STARTCHAR m
ENCODING -1 109
SWIDTH 0 0
DWIDTH 14 0
BBX 12 9 1 -1
BITMAP
dce0
ef70
c630
c630
c630
c630
c630
c630
c630
ENDCHAR
STARTCHAR n
ENCODING -1 110
SWIDTH 0 0
DWIDTH 9 0
BBX 7 9 1 -1
BITMAP
dc00
ee00
c600
c600
c600
c600
c600
c600
c600
ENDCHAR
STARTCHAR o
ENCODING -1 111
SWIDTH 0 0
DWIDTH 10 0
BBX 8 9 1 -1
BITMAP
3c00
6600
c300
c300
c300
c300
c300
6600
3c00
ENDCHAR
STARTCHAR p
ENCODING -1 112
SWIDTH 0 0
DWIDTH 9 0
BBX 7 13 1 -5
BITMAP
d800
ec00
c600
c600
c600
c600
c600
ec00
d800
c000
c000
c000
c000
ENDCHAR
STARTCHAR q
ENCODING -1 113
SWIDTH 0 0
DWIDTH 9 0
BBX 7 13 1 -5
BITMAP
3600
6e00
c600
c600
c600
c600
c600
6e00
3600
0600
0600
0600
0600
ENDCHAR
STARTCHAR r
ENCODING -1 114
SWIDTH 0 0
DWIDTH 7 0
BBX 5 9 1 -1
BITMAP
d800
f800
c000
c000
c000
c000
c000
c000
c000
ENDCHAR
STARTCHAR s
ENCODING -1 115
SWIDTH 0 0
DWIDTH 8 0
BBX 6 9 1 -1
BITMAP
7800
cc00
cc00
e000
7800
1c00
cc00
cc00
7800
ENDCHAR
STARTCHAR t
ENCODING -1 116
SWIDTH 0 0
DWIDTH 6 0
BBX 4 11 1 -1
BITMAP
6000
6000
f000
6000
6000
6000
6000
6000
6000
6000
3000
ENDCHAR
STARTCHAR u
ENCODING -1 117
SWIDTH 0 0
DWIDTH 9 0
BBX 7 9 1 -1
BITMAP
c600
c600
c600
c600
c600
c600
c600
ee00
7600
ENDCHAR
STARTCHAR v
ENCODING -1 118
SWIDTH 0 0
DWIDTH 10 0
BBX 8 9 1 -1
BITMAP
c300
c300
c300
6600
6600
2400
3c00
1800
1800
ENDCHAR
STARTCHAR w
ENCODING -1 119
SWIDTH 0 0
DWIDTH 14 0
BBX 12 9 1 -1
BITMAP
c630
c630
c630
6f60
6f60
6960
39c0
30c0
30c0
ENDCHAR
STARTCHAR x
ENCODING -1 120
SWIDTH 0 0
DWIDTH 9 0
BBX 7 9 1 -1
BITMAP
c600
c600
6c00
3800
3800
3800
6c00
c600
c600
ENDCHAR
STARTCHAR y
ENCODING -1 121
SWIDTH 0 0
DWIDTH 10 0
BBX 8 12 1 -4
BITMAP
c300
c300
c300
6600
6600
6600
3c00
3c00
1800
1000
f000
e000
ENDCHAR
STARTCHAR z
ENCODING -1 122
SWIDTH 0 0
DWIDTH 9 0
BBX 7 9 1 -1
BITMAP
7e00
7e00
0c00
1800
1800
3000
6000
fe00
fe00
ENDCHAR
STARTCHAR {
ENCODING -1 123
SWIDTH 0 0
DWIDTH 7 0
BBX 5 16 1 -5
BITMAP
3000
6000
6000
6000
6000
6000
6000
c000
6000
6000
6000
6000
6000
6000
6000
3000
ENDCHAR
STARTCHAR |
ENCODING -1 124
SWIDTH 0 0
DWIDTH 4 0
BBX 2 16 1 -5
BITMAP
c000
c000
c000
c000
c000
c000
c000
c000
c000
c000
c000
c000
c000
c000
c000
c000
ENDCHAR
STARTCHAR }
ENCODING -1 125
SWIDTH 0 0
DWIDTH 7 0
BBX 5 16 1 -5
BITMAP
c000
6000
6000
6000
6000
6000
6000
3000
6000
6000
6000
6000
6000
6000
6000
c000
ENDCHAR
STARTCHAR ~
ENCODING -1 126
SWIDTH 0 0
DWIDTH 9 0
BBX 7 3 1 2
BITMAP
6000
9200
0c00
ENDCHAR
ENDFONT
